<svg width="20" height="22" viewBox="0 0 20 22" fill="none" xmlns="http://www.w3.org/2000/svg">
<path d="M17.375 11.5V5.8C17.375 4.11984 17.375 3.27976 17.048 2.63803C16.7604 2.07354 16.3015 1.6146 15.737 1.32698C15.0952 1 14.2552 1 12.575 1H6.175C4.49484 1 3.65476 1 3.01303 1.32698C2.44854 1.6146 1.9896 2.07354 1.70198 2.63803C1.375 3.27976 1.375 4.11984 1.375 5.8V16.2C1.375 17.8802 1.375 18.7202 1.70198 19.362C1.9896 19.9265 2.44854 20.3854 3.01303 20.673C3.65476 21 4.49484 21 6.175 21H9.375M11.375 10H5.375M7.375 14H5.375M13.375 6H5.375M11.875 18L13.875 20L18.375 15.5" stroke="#C6C6C6" stroke-width="2" stroke-linecap="round" stroke-linejoin="round"/>
</svg>
