<svg width="19" height="22" viewBox="0 0 19 22" fill="none" xmlns="http://www.w3.org/2000/svg">
<path d="M11.625 10H5.625M7.625 14H5.625M13.625 6H5.625M17.625 5.8V16.2C17.625 17.8802 17.625 18.7202 17.298 19.362C17.0104 19.9265 16.5515 20.3854 15.987 20.673C15.3452 21 14.5052 21 12.825 21H6.425C4.74484 21 3.90476 21 3.26303 20.673C2.69854 20.3854 2.2396 19.9265 1.95198 19.362C1.625 18.7202 1.625 17.8802 1.625 16.2V5.8C1.625 4.11984 1.625 3.27976 1.95198 2.63803C2.2396 2.07354 2.69854 1.6146 3.26303 1.32698C3.90476 1 4.74484 1 6.425 1H12.825C14.5052 1 15.3452 1 15.987 1.32698C16.5515 1.6146 17.0104 2.07354 17.298 2.63803C17.625 3.27976 17.625 4.11984 17.625 5.8Z" stroke="#C6C6C6" stroke-width="2" stroke-linecap="round" stroke-linejoin="round"/>
</svg>
