<svg width="28" height="28" viewBox="0 0 28 28" fill="none" xmlns="http://www.w3.org/2000/svg">
<path d="M7.0439 21.219C6.82515 21.1753 6.65015 21.1315 6.4314 21.044C6.21265 20.9565 6.03765 20.9128 5.86265 20.8253C5.4689 20.6503 5.1189 20.4315 4.7689 20.169C4.0689 19.6878 3.50015 19.0315 3.06265 18.244C2.62515 17.5003 2.36265 16.6253 2.3189 15.794C2.27515 15.3565 2.3189 14.9628 2.36265 14.5253C2.4064 14.3065 2.45015 14.1315 2.4939 13.9128C2.53765 13.694 2.62515 13.519 2.6689 13.3003L2.71265 13.9128C2.71265 14.1315 2.7564 14.3065 2.80015 14.5253C2.8439 14.919 2.9314 15.3128 3.0189 15.6628C3.1939 16.4065 3.4564 17.1065 3.85015 17.7628C4.2439 18.419 4.6814 19.0315 5.25015 19.6003C5.51265 19.8628 5.8189 20.1253 6.12515 20.3878C6.2564 20.519 6.4314 20.6503 6.6064 20.7815L7.0439 21.219Z" fill="#C6C6C6"/>
<path d="M6.9125 22.794C6.78125 22.8815 6.60625 22.9253 6.43125 22.969C6.25625 23.0128 6.125 23.0565 5.95 23.0565C5.64375 23.1003 5.29375 23.144 4.94375 23.1003C4.2875 23.0565 3.5875 22.8815 3.01875 22.5753C2.40625 22.269 1.88125 21.7878 1.53125 21.219C1.35625 20.9565 1.18125 20.6503 1.05 20.344C1.00625 20.2128 0.9625 20.0378 0.91875 19.8628C0.91875 19.7315 0.875 19.6003 0.875 19.4253C1.00625 19.5565 1.09375 19.644 1.18125 19.7753C1.3125 19.9065 1.4 20.0378 1.4875 20.1253C1.70625 20.344 1.88125 20.5628 2.1 20.7378C2.5375 21.1315 2.975 21.4815 3.5 21.744C3.98125 22.0065 4.55 22.2253 5.075 22.4003C5.3375 22.4878 5.64375 22.5315 5.95 22.619C6.08125 22.6628 6.25625 22.6628 6.3875 22.7065C6.60625 22.7503 6.7375 22.7503 6.9125 22.794Z" fill="#C6C6C6"/>
<path d="M16.7998 1.53125C17.0186 1.575 17.1936 1.6625 17.4123 1.75C17.6311 1.8375 17.8061 1.925 17.9811 2.0125C18.3748 2.23125 18.7248 2.45 19.0748 2.7125C19.7748 3.2375 20.3436 3.9375 20.7373 4.725C21.1311 5.5125 21.3498 6.3875 21.3498 7.21875C21.3498 7.65625 21.3061 8.05 21.2186 8.4875C21.1748 8.70625 21.1311 8.88125 21.0436 9.1C20.9561 9.31875 20.9123 9.49375 20.8248 9.66875L20.7811 9.05625C20.7811 8.8375 20.7811 8.6625 20.7373 8.44375L20.6061 7.2625C20.4748 6.51875 20.2123 5.775 19.8623 5.075C19.5123 4.375 19.0748 3.7625 18.5498 3.19375C18.2873 2.8875 17.9811 2.625 17.7186 2.31875C17.5873 2.1875 17.4123 2.05625 17.2373 1.925L16.7998 1.53125Z" fill="#C6C6C6"/>
<path d="M20.6064 1.35645C20.7814 1.4002 20.9127 1.44395 21.0439 1.53145C21.1752 1.5752 21.3502 1.6627 21.4814 1.7502C21.7439 1.9252 22.0064 2.1002 22.2689 2.31895C22.7502 2.75645 23.1439 3.28144 23.3627 3.89394C23.6252 4.50644 23.7127 5.1627 23.6252 5.81894C23.5814 6.1252 23.4939 6.43144 23.4064 6.73769C23.3627 6.86894 23.2752 7.04394 23.2314 7.17519C23.1439 7.30644 23.1002 7.43769 22.9689 7.56894V6.69394C22.9689 6.38769 22.9252 6.12519 22.9252 5.86269C22.8377 5.29394 22.7502 4.76894 22.5314 4.28769C22.3127 3.7627 22.0502 3.3252 21.7439 2.84395C21.5689 2.6252 21.3939 2.3627 21.2189 2.14395C21.1314 2.0127 21.0439 1.9252 20.9127 1.79395C20.8252 1.5752 20.6939 1.44395 20.6064 1.35645Z" fill="#C6C6C6"/>
<path d="M4.37511 7.87499C3.50011 8.26874 3.19386 9.31874 3.58761 10.1937L9.10011 21.7L12.1626 20.2562L6.65011 8.70624C6.25636 7.83124 5.25011 7.43749 4.37511 7.87499Z" fill="#FED0AC"/>
<path d="M18.8561 17.0187L22.0936 15.4875L15.7936 2.36249C15.3561 1.48749 14.3061 1.09374 13.3874 1.53124C12.5124 1.96874 12.1186 3.01874 12.5561 3.93749L18.8561 17.0187Z" fill="#FED0AC"/>
<path d="M13.4314 1.48732C13.3439 1.53107 13.2564 1.57482 13.1689 1.66232C14.0002 1.44357 14.8752 1.83732 15.2689 2.62482L21.5689 15.7498L22.1377 15.4873L15.8377 2.36232C15.4002 1.44357 14.3502 1.04982 13.4314 1.48732Z" fill="#E0A372"/>
<path d="M12.1627 20.2125L15.5315 18.5938L9.10021 5.20625C8.66271 4.2875 7.52521 3.85 6.60646 4.2875C5.68771 4.725 5.29396 5.8625 5.73146 6.78125L12.1627 20.2125Z" fill="#FED0AC"/>
<path d="M6.60625 4.33113C6.51875 4.37488 6.43125 4.41863 6.34375 4.50613C7.175 4.28738 8.1375 4.68113 8.53125 5.51238L12.5125 13.8686L13.475 14.4374L9.1 5.24988C8.6625 4.28738 7.56875 3.89363 6.60625 4.33113Z" fill="#E0A372"/>
<path d="M15.0065 17.5439L18.3752 15.9251L11.944 2.53761C11.5065 1.61886 10.369 1.18136 9.45021 1.66261C8.53146 2.10011 8.13771 3.23761 8.57521 4.15636L15.0065 17.5439Z" fill="#FED0AC"/>
<path d="M9.45 1.61872C9.3625 1.66247 9.275 1.74997 9.1875 1.79372C10.0188 1.57497 10.9813 1.96872 11.375 2.79997L15.8812 12.25L16.8438 12.8187L11.9437 2.53747C11.5062 1.57497 10.3688 1.18122 9.45 1.61872Z" fill="#E0A372"/>
<path d="M4.3748 7.87502C4.2873 7.91877 4.1998 7.96252 4.1123 8.05002C4.8998 7.83127 5.73105 8.22502 6.08105 9.01252L9.3623 15.8813L10.3248 16.45L6.6498 8.75002C6.25605 7.83127 5.2498 7.43752 4.3748 7.87502Z" fill="#E0A372"/>
<path d="M26.6 6.56229C25.4187 5.64353 23.4937 6.64979 22.5312 9.79979C21.875 11.9873 21.7875 12.6435 20.3875 13.2998L19.6 11.681C19.6 11.681 7.17496 17.6748 7.65621 18.6373C7.65621 18.6373 9.14371 23.2748 11.6812 25.4185C15.4437 28.656 24.2375 25.1998 24.6312 16.8435C24.85 11.9873 27.8687 7.56854 26.6 6.56229Z" fill="#FED0AC"/>
<path d="M26.5998 6.5626C26.3811 6.3876 26.1186 6.3001 25.8561 6.25635C25.8998 6.3001 25.9873 6.3001 26.0311 6.34385C27.3436 7.3501 25.9873 9.66885 25.2436 11.7688C24.6311 13.4313 24.1061 15.1376 24.1936 16.8001C24.5436 24.0626 17.2373 27.5189 12.8623 26.2064C17.1498 28.0001 25.1123 24.5876 24.7623 17.0188C24.6748 15.3563 25.1561 13.7376 25.8123 11.9876C26.5123 9.8876 27.8686 7.56885 26.5998 6.5626Z" fill="#E0A372"/>
<path d="M20.7809 13.125C18.0684 13.4313 14.0871 17.325 16.8871 21.5688C14.8309 17.2812 18.1996 14.3938 20.3434 13.3875C20.5621 13.2125 20.7809 13.125 20.7809 13.125Z" fill="#E0A372"/>
</svg>
